<svg fill="none" height="78" viewBox="0 0 77 78" width="77" xmlns="http://www.w3.org/2000/svg" xmlns:xlink="http://www.w3.org/1999/xlink"><radialGradient id="a" cx="0" cy="0" gradientTransform="matrix(0 32.8538 -32.3844 0 38.5 39)" gradientUnits="userSpaceOnUse" r="1"><stop offset="0" stop-color="#fff"/><stop offset="1" stop-color="#f2f3f4"/></radialGradient><linearGradient id="b"><stop offset="0" stop-color="#d5b0f2"/><stop offset="1" stop-color="#d5b0f2" stop-opacity="0"/></linearGradient><linearGradient id="c" gradientUnits="userSpaceOnUse" x1="11.5921" x2="11.5921" xlink:href="#b" y1="-5.58643" y2="137.98"/><linearGradient id="d" gradientUnits="userSpaceOnUse" x1="43.0777" x2="43.0777" y1="-31.2231" y2="85.1463"><stop offset="0" stop-color="#1ddebb"/><stop offset="1" stop-color="#1ddebb" stop-opacity="0"/></linearGradient><linearGradient id="e" gradientUnits="userSpaceOnUse" x1="69.8737" x2="69.8737" xlink:href="#b" y1="-5.14014" y2="92.0573"/><linearGradient id="f" gradientUnits="userSpaceOnUse" x1="72.9999" x2="72.9999" xlink:href="#b" y1="26.9619" y2="105.433"/><linearGradient id="g" gradientUnits="userSpaceOnUse" x1="2.69824" x2="2.69824" y1="37.2061" y2="95.2803"><stop offset="0" stop-color="#ab61e5"/><stop offset="1" stop-color="#ab61e5" stop-opacity="0"/></linearGradient><mask id="h" height="70" maskUnits="userSpaceOnUse" width="69" x="4" y="4"><path d="m4 73.1083c0 .4925.3999.8917.8932.8917h19.0122c.4933 0 .8932-.3992.8932-.8917v-25.8636c0-.4925.3999-.8918.8932-.8918h25.6164c.4933 0 .8932.3993.8932.8918v25.8636c0 .4925.3999.8917.8932.8917h19.0122c.4933 0 .8932-.3992.8932-.8917v-68.21658c0-.49248-.3999-.89172-.8932-.89172h-19.0122c-.4933 0-.8932.39924-.8932.89172v24.98128c0 .4925-.3999.8917-.8932.8917h-25.6164c-.4933 0-.8932-.3992-.8932-.8917v-24.98128c0-.49248-.3999-.89172-.8932-.89172h-19.0122c-.4933 0-.8932.39924-.8932.89172z" fill="url(#a)"/></mask><g mask="url(#h)"><ellipse cx="11.5921" cy="66.197" fill="url(#c)" rx="71.9029" ry="71.7834"/><ellipse cx="43.0777" cy="26.9616" fill="url(#d)" rx="58.2816" ry="58.1847"/><ellipse cx="69.8737" cy="43.4586" fill="url(#e)" rx="48.6796" ry="48.5987"/><ellipse cx="72.9999" cy="66.1976" fill="url(#f)" rx="39.301" ry="39.2357"/><ellipse cx="2.69824" cy="66.2432" fill="url(#g)" rx="29.0671" ry="29.0371"/></g></svg>